# xmcd CD database file
#
# Track frame offsets:
#	150
#	15709
#	38031
#	54140
#	70601
#	84091
#	96898
#	108164
#	124327
#	135169
#	155569
#	167181
#	180963
#	194136
#
# Disc length: 2738 seconds
#
# Revision: 0
# Processed by: cddbd v1.5.2PL0 Copyright (c) Steve Scherf et al.
# Submitted via: CDex 1.70beta2
#
DISCID=a80ab00e
DTITLE=Bandari - Travelling Home
DYEAR=2005
DGENRE=New Age
TTITLE0=Sunrise
TTITLE1=Calling Me Away
TTITLE2=Travelling Home
TTITLE3=Memories
TTITLE4=Simple Things
TTITLE5=Drifting Clouds
TTITLE6=Riverside
TTITLE7=Sumbursts
TTITLE8=The Winding Road
TTITLE9=Mountain Mist
TTITLE10=Always On My Mind
TTITLE11=March of the Wind
TTITLE12=Gentle Rain
TTITLE13=Lights of Home
EXTD=YEAR: 2005
EXTT0=
EXTT1=
EXTT2=
EXTT3=
EXTT4=
EXTT5=
EXTT6=
EXTT7=
EXTT8=
EXTT9=
EXTT10=
EXTT11=
EXTT12=
EXTT13=
PLAYORDER=
